<svg version="1.1" xmlns="http://www.w3.org/2000/svg" xmlns:xlink="http://www.w3.org/1999/xlink">
<path d="M56.583,8.229c-3.229,0-6.25,10.065-6.25,20.833c0,7.422,4.167,10.417,4.167,10.417v16.667
	c0,1.146,0.938,2.083,2.083,2.083s2.083-0.938,2.083-2.083V9.661C58.666,8.229,57.234,8.229,56.583,8.229z M44.083,8.229
	l1.302,13.542c0,0.573-0.469,1.042-1.042,1.042c-0.573,0-1.042-0.469-1.042-1.042L42.521,8.229h-1.042L40.698,21.77
	c0,0.573-0.469,1.042-1.042,1.042c-0.573,0-1.042-0.469-1.042-1.042l1.302-13.542h-1.042c0,0-3.125,13.958-3.125,16.667
	s1.745,5.026,4.167,5.885v25.365c0,1.146,0.938,2.083,2.083,2.083c1.146,0,2.083-0.938,2.083-2.083V30.781
	c2.422-0.859,4.167-3.151,4.167-5.885S45.125,8.229,45.125,8.229H44.083z M27.416,8.229c-3.451,0-6.25,8.333-6.25,16.667
	c0,2.708,1.745,5.026,4.167,5.885v25.365c0,1.146,0.937,2.083,2.083,2.083s2.083-0.938,2.083-2.083V30.781
	c2.422-0.859,4.167-3.151,4.167-5.885C33.666,16.562,30.867,8.229,27.416,8.229z M72.819,17.125h10.163v2.044h-7.728v6.272h7.14
	v2.016h-7.14v8.54h-2.436V17.125z M102.583,26.366c0,6.496-3.948,9.94-8.764,9.94c-4.984,0-8.484-3.864-8.484-9.576
	c0-5.992,3.725-9.912,8.764-9.912C99.251,16.818,102.583,20.765,102.583,26.366z M87.939,26.674c0,4.032,2.184,7.644,6.02,7.644
	c3.864,0,6.048-3.556,6.048-7.84c0-3.752-1.96-7.672-6.02-7.672C89.955,18.805,87.939,22.53,87.939,26.674z M121.875,26.366
	c0,6.496-3.948,9.94-8.764,9.94c-4.984,0-8.484-3.864-8.484-9.576c0-5.992,3.725-9.912,8.764-9.912
	C118.543,16.818,121.875,20.765,121.875,26.366z M107.231,26.674c0,4.032,2.184,7.644,6.02,7.644c3.864,0,6.048-3.556,6.048-7.84
	c0-3.752-1.96-7.672-6.02-7.672C109.247,18.805,107.231,22.53,107.231,26.674z M125.038,17.377c1.484-0.224,3.248-0.392,5.18-0.392
	c3.5,0,5.992,0.812,7.645,2.352c1.68,1.54,2.66,3.724,2.66,6.776c0,3.08-0.952,5.6-2.717,7.336
	c-1.764,1.764-4.676,2.716-8.344,2.716c-1.735,0-3.191-0.084-4.424-0.224V17.377z M127.475,34.065
	c0.615,0.112,1.512,0.14,2.464,0.14c5.208,0,8.035-2.912,8.035-8.008c0.028-4.452-2.491-7.28-7.644-7.28
	c-1.26,0-2.212,0.112-2.855,0.252V34.065z M146.123,17.125v18.872h-2.437V17.125H146.123z M153.43,30.061l-1.96,5.936h-2.52
	l6.412-18.872h2.939l6.44,18.872h-2.604l-2.016-5.936H153.43z M159.618,28.158l-1.849-5.432c-0.42-1.232-0.699-2.352-0.979-3.444
	h-0.056c-0.28,1.12-0.589,2.268-0.952,3.416l-1.849,5.46H159.618z M167.514,17.377c1.232-0.252,2.996-0.392,4.676-0.392
	c2.604,0,4.284,0.476,5.46,1.54c0.952,0.84,1.484,2.128,1.484,3.584c0,2.492-1.568,4.144-3.556,4.816v0.084
	c1.455,0.504,2.323,1.848,2.771,3.808c0.616,2.632,1.064,4.452,1.456,5.18h-2.52c-0.309-0.532-0.729-2.156-1.261-4.508
	c-0.56-2.604-1.567-3.584-3.779-3.668h-2.296v8.176h-2.437V17.377z M169.95,25.973h2.491c2.604,0,4.256-1.428,4.256-3.584
	c0-2.436-1.764-3.5-4.34-3.528c-1.176,0-2.016,0.112-2.407,0.224V25.973z M186.471,35.997V27.99l-5.964-10.864h2.771l2.66,5.208
	c0.729,1.428,1.288,2.576,1.876,3.892h0.056c0.532-1.232,1.177-2.464,1.904-3.892l2.716-5.208h2.772l-6.328,10.836v8.036H186.471z
	 M109.476,49.065c-0.546,0.196-1.624,0.519-2.899,0.519c-1.429,0-2.605-0.364-3.529-1.247c-0.812-0.785-1.317-2.045-1.317-3.516
	c0.015-2.815,1.947-4.875,5.113-4.875c1.093,0,1.947,0.238,2.354,0.434l-0.295,0.995c-0.504-0.224-1.134-0.406-2.087-0.406
	c-2.297,0-3.796,1.429-3.796,3.796c0,2.396,1.442,3.81,3.642,3.81c0.799,0,1.345-0.112,1.625-0.252v-2.815h-1.919v-0.98h3.109
	V49.065z M112.049,46.32c0.028,1.667,1.093,2.353,2.325,2.353c0.883,0,1.415-0.154,1.877-0.35l0.21,0.882
	c-0.434,0.196-1.177,0.42-2.255,0.42c-2.087,0-3.334-1.373-3.334-3.418s1.205-3.656,3.18-3.656c2.213,0,2.802,1.947,2.802,3.193
	c0,0.252-0.028,0.448-0.042,0.575H112.049z M115.663,45.437c0.014-0.784-0.322-2.003-1.709-2.003c-1.247,0-1.793,1.148-1.892,2.003
	H115.663z M118.376,44.54c0-0.7-0.014-1.274-0.056-1.835h1.093l0.069,1.121h0.028c0.336-0.644,1.12-1.274,2.241-1.274
	c0.938,0,2.396,0.56,2.396,2.885v4.048h-1.233v-3.908c0-1.092-0.405-2.003-1.568-2.003c-0.812,0-1.442,0.574-1.653,1.261
	c-0.056,0.154-0.084,0.364-0.084,0.574v4.076h-1.232V44.54z M131.818,47.636c0,0.701,0.015,1.317,0.057,1.849h-1.093l-0.07-1.106
	h-0.028c-0.321,0.546-1.036,1.261-2.241,1.261c-1.064,0-2.339-0.588-2.339-2.97v-3.964h1.232v3.754c0,1.289,0.393,2.157,1.513,2.157
	c0.827,0,1.401-0.574,1.625-1.121c0.07-0.182,0.112-0.406,0.112-0.63v-4.16h1.232V47.636z M135.232,40.801
	c0.014,0.42-0.294,0.756-0.784,0.756c-0.435,0-0.743-0.336-0.743-0.756c0-0.435,0.322-0.771,0.771-0.771
	C134.938,40.03,135.232,40.366,135.232,40.801z M133.859,49.485v-6.78h1.232v6.78H133.859z M137.136,44.54
	c0-0.7-0.014-1.274-0.056-1.835h1.093l0.069,1.121h0.028c0.336-0.644,1.12-1.274,2.241-1.274c0.938,0,2.396,0.56,2.396,2.885v4.048
	h-1.233v-3.908c0-1.092-0.405-2.003-1.568-2.003c-0.812,0-1.442,0.574-1.653,1.261c-0.056,0.154-0.084,0.364-0.084,0.574v4.076
	h-1.232V44.54z M145.592,46.32c0.028,1.667,1.093,2.353,2.325,2.353c0.883,0,1.415-0.154,1.877-0.35l0.21,0.882
	c-0.434,0.196-1.177,0.42-2.255,0.42c-2.087,0-3.334-1.373-3.334-3.418s1.205-3.656,3.18-3.656c2.213,0,2.802,1.947,2.802,3.193
	c0,0.252-0.028,0.448-0.042,0.575H145.592z M149.206,45.437c0.014-0.784-0.322-2.003-1.709-2.003c-1.247,0-1.793,1.148-1.892,2.003
	H149.206z M154.929,40.044h5.085v1.022h-3.866v3.138h3.572v1.008h-3.572v4.272h-1.219V40.044z M167.407,46.039
	c0,2.507-1.737,3.6-3.376,3.6c-1.835,0-3.25-1.345-3.25-3.488c0-2.269,1.485-3.6,3.362-3.6
	C166.09,42.552,167.407,43.966,167.407,46.039z M162.028,46.109c0,1.485,0.854,2.605,2.059,2.605c1.177,0,2.06-1.106,2.06-2.633
	c0-1.148-0.574-2.605-2.031-2.605S162.028,44.821,162.028,46.109z M175.093,46.039c0,2.507-1.737,3.6-3.376,3.6
	c-1.835,0-3.25-1.345-3.25-3.488c0-2.269,1.485-3.6,3.362-3.6C173.775,42.552,175.093,43.966,175.093,46.039z M169.714,46.109
	c0,1.485,0.854,2.605,2.059,2.605c1.177,0,2.06-1.106,2.06-2.633c0-1.148-0.574-2.605-2.031-2.605S169.714,44.821,169.714,46.109z
	 M182.499,39.54v8.194c0,0.603,0.014,1.289,0.056,1.751h-1.106l-0.056-1.177h-0.028c-0.378,0.756-1.205,1.331-2.312,1.331
	c-1.639,0-2.899-1.387-2.899-3.446c-0.014-2.255,1.387-3.642,3.04-3.642c1.036,0,1.736,0.49,2.045,1.037h0.028V39.54H182.499z
	 M181.267,45.465c0-0.154-0.015-0.364-0.057-0.519c-0.182-0.784-0.854-1.429-1.779-1.429c-1.274,0-2.03,1.121-2.03,2.62
	c0,1.373,0.672,2.507,2.003,2.507c0.826,0,1.583-0.546,1.807-1.471c0.042-0.168,0.057-0.336,0.057-0.533V45.465z M187.549,40.17
	c0.616-0.126,1.499-0.196,2.34-0.196c1.302,0,2.143,0.238,2.731,0.771c0.476,0.42,0.742,1.064,0.742,1.793
	c0,1.247-0.784,2.073-1.779,2.409v0.042c0.729,0.252,1.163,0.925,1.387,1.905c0.309,1.316,0.532,2.227,0.729,2.591h-1.261
	c-0.154-0.266-0.364-1.079-0.63-2.255c-0.28-1.303-0.785-1.793-1.892-1.835h-1.148v4.09h-1.219V40.17z M188.768,44.471h1.247
	c1.303,0,2.129-0.714,2.129-1.793c0-1.219-0.883-1.751-2.171-1.765c-0.589,0-1.009,0.056-1.205,0.112V44.471z M195.781,46.32
	c0.028,1.667,1.093,2.353,2.325,2.353c0.883,0,1.415-0.154,1.877-0.35l0.21,0.882c-0.434,0.196-1.177,0.42-2.255,0.42
	c-2.087,0-3.334-1.373-3.334-3.418s1.205-3.656,3.18-3.656c2.213,0,2.802,1.947,2.802,3.193c0,0.252-0.028,0.448-0.042,0.575
	H195.781z M199.396,45.437c0.014-0.784-0.322-2.003-1.709-2.003c-1.247,0-1.793,1.148-1.892,2.003H199.396z M202.585,42.705
	l1.33,3.81c0.225,0.617,0.406,1.177,0.547,1.737h0.042c0.154-0.56,0.35-1.12,0.574-1.737l1.316-3.81h1.289l-2.661,6.78h-1.177
	l-2.578-6.78H202.585z M210.216,40.801c0.014,0.42-0.294,0.756-0.784,0.756c-0.435,0-0.743-0.336-0.743-0.756
	c0-0.435,0.322-0.771,0.771-0.771C209.922,40.03,210.216,40.366,210.216,40.801z M208.843,49.485v-6.78h1.232v6.78H208.843z
	 M212.805,46.32c0.028,1.667,1.093,2.353,2.325,2.353c0.883,0,1.415-0.154,1.877-0.35l0.21,0.882
	c-0.434,0.196-1.177,0.42-2.255,0.42c-2.087,0-3.334-1.373-3.334-3.418s1.205-3.656,3.18-3.656c2.213,0,2.802,1.947,2.802,3.193
	c0,0.252-0.028,0.448-0.042,0.575H212.805z M216.419,45.437c0.014-0.784-0.322-2.003-1.709-2.003c-1.247,0-1.793,1.148-1.892,2.003
	H216.419z M219.623,42.705l0.896,3.446c0.196,0.756,0.378,1.457,0.505,2.157h0.042c0.153-0.686,0.378-1.415,0.602-2.143l1.106-3.46
	h1.037l1.051,3.39c0.252,0.812,0.448,1.527,0.602,2.213h0.043c0.111-0.686,0.294-1.401,0.518-2.199l0.967-3.404h1.219l-2.186,6.78
	h-1.12l-1.037-3.236c-0.238-0.756-0.434-1.429-0.603-2.227h-0.027c-0.168,0.812-0.378,1.513-0.616,2.241l-1.093,3.222h-1.121
	l-2.045-6.78H219.623z"/>
</svg>
